<svg width="100%" height="auto" viewBox="0 0 728 115" fill="none" xmlns="http://www.w3.org/2000/svg">
<g clip-path="url(#clip0)">
<rect width="728" height="115" fill="white"/>
<path d="M0 -1.27783H728V146.944H0V-1.27783Z" fill="#292D35"/>
<path d="M240.05 113.095L240.211 114.955C241.334 113.52 242.843 112.802 244.737 112.802C246.739 112.802 248.092 113.598 248.795 115.189C249.869 113.598 251.422 112.802 253.453 112.802C256.666 112.802 258.316 114.745 258.404 118.632V128.944H253.453V118.939C253.453 118.129 253.316 117.538 253.043 117.167C252.77 116.796 252.271 116.61 251.549 116.61C250.572 116.61 249.845 117.045 249.366 117.914L249.381 118.119V128.944H244.43V118.969C244.43 118.139 244.298 117.538 244.034 117.167C243.771 116.796 243.268 116.61 242.525 116.61C241.578 116.61 240.855 117.045 240.357 117.914V128.944H235.421V113.095H240.05Z" fill="black"/>
<path d="M183.215 29.0724C183.154 29.0217 183.015 29.0239 182.9 29C182.84 29.0883 182.762 29.1582 182.743 29.2353C182.697 29.43 182.664 29.6276 182.645 29.8266C182.199 34.2639 180.527 38.3823 177.275 42.1543C175.472 44.2455 173.675 46.3835 172.347 48.6553C169.052 54.2923 171.984 60.0488 179.172 62.5649C179.408 62.6471 179.674 62.6847 180.267 62.8215C177.829 60.6442 176.573 58.4292 176.996 55.8074C177.399 53.3075 178.679 51.0773 180.616 49.0436C180.759 49.3267 180.768 49.5731 180.758 49.8196C180.664 52.0498 181.41 54.018 183.717 55.5721C184.784 56.2902 185.741 57.1034 186.706 57.9026C187.685 58.7169 187.969 59.6956 187.691 60.7618C187.557 61.2801 187.361 61.7893 187.15 62.4292C188.792 62.2696 190.31 62.0438 191.329 61.1476C192.304 60.2917 193.025 59.2754 194.065 58.0929C194.138 59.094 194.281 59.8729 194.225 60.6445C194.167 61.4469 193.916 62.241 193.749 63.0402C198.738 62.2993 203.14 57.4607 203.333 52.5102C203.475 48.8978 200.366 43.6067 197.754 43.0935C197.901 43.4323 198.037 43.7537 198.183 44.0707C199.089 46.0432 199.355 48.0433 198.781 50.1073C198.208 52.1606 195.3 54.4635 192.732 54.7549C192.819 54.5489 192.855 54.3568 192.974 54.2C195.74 50.5196 195.773 46.6676 194.203 42.7367C192.102 37.4811 188.07 33.0876 183.215 29.0724Z" fill="url(#paint0_linear)"/>
<path d="M229.873 45.8696H218.607V44.9237C218.607 43.2978 219.289 42.2927 220.712 42.2927H222.224V38.3611H220.712C216.74 38.3611 214.457 40.6964 214.457 44.9237V45.8696H211.848V49.1214H214.457V59.6747H218.607V49.1214H225.782V59.6747H229.873V45.8696ZM225.248 40.7555C225.248 42.1154 226.434 43.1796 227.827 43.1796C229.221 43.1796 230.347 42.1154 230.347 40.7555C230.347 39.3957 229.221 38.3611 227.827 38.3611C226.434 38.3611 225.248 39.3957 225.248 40.7555Z" fill="white"/>
<path d="M237.797 54.8562C237.797 51.2202 238.865 49.3578 241.236 49.3578C241.888 49.3578 242.6 49.417 243.341 49.7717L244.082 46.0766C243.43 45.7514 242.689 45.574 241.711 45.574C240.288 45.574 238.509 46.6382 237.797 49.21V45.8696H233.677V59.6747H237.797V54.8562Z" fill="white"/>
<path d="M255.704 55.1223C255.023 56.0091 253.807 56.423 252.681 56.423C251.228 56.423 249.479 55.7135 249.271 54.1172H259.41C259.44 53.7625 259.469 53.2008 259.469 52.8461C259.469 48.5006 256.327 45.574 252.384 45.574C248.412 45.574 245.151 48.3823 245.151 52.7278C245.151 57.0733 248.412 59.9703 252.384 59.9703C254.726 59.9703 257.305 59.2313 258.699 57.162L255.704 55.1223ZM249.331 51.5454C249.686 49.8013 251.258 49.1805 252.414 49.1805C253.57 49.1805 255.112 49.8604 255.319 51.5454H249.331Z" fill="white"/>
<path d="M267.676 54.4719C268.683 54.738 269.039 55.0632 269.039 55.6544C269.039 56.3638 268.268 56.7777 267.349 56.8073C266.223 56.8073 265.333 56.0091 265.304 55.211H261.45C261.48 58.2853 264.414 59.9703 267.231 59.9703C270.136 59.9703 273.219 58.5809 273.219 55.6544C273.219 54.7675 272.804 52.5505 269.454 51.6341L267.112 51.0133C266.282 50.8063 265.926 50.3925 265.897 49.9786C265.867 49.3578 266.46 48.944 267.349 48.944C268.002 48.944 268.891 49.1214 268.921 50.156H272.804C272.775 46.786 269.869 45.574 267.112 45.574C264.207 45.574 261.746 47.4659 261.717 49.5057C261.687 50.7768 261.717 52.8756 265.867 53.999L267.676 54.4719Z" fill="white"/>
<path d="M280.239 52.3731C280.239 50.2742 281.692 49.5648 282.996 49.5648C284.241 49.5648 285.546 50.5107 285.546 52.314V59.6747C286.228 59.6747 288.985 59.6747 289.667 59.6747V52.1662C289.667 47.998 287.769 45.574 284.123 45.574C282.818 45.574 280.802 46.313 280.239 48.0276V38.3611H276.118V59.6747H280.239V52.3731Z" fill="white"/>
<path d="M297.377 45.8696H293.286V59.6747H297.377V45.8696ZM292.753 40.7555C292.753 42.1154 293.939 43.1796 295.332 43.1796C296.725 43.1796 297.852 42.1154 297.852 40.7555C297.852 39.3957 296.725 38.3611 295.332 38.3611C293.939 38.3611 292.753 39.3957 292.753 40.7555Z" fill="white"/>
<path d="M305.341 52.8165C305.341 50.8359 306.823 49.4761 308.543 49.4761C310.292 49.4761 311.744 50.7768 311.744 52.8165C311.744 54.7971 310.292 56.0978 308.543 56.0978C306.853 56.0978 305.341 54.8858 305.341 52.8165ZM301.161 45.8696V66.4442H305.252V57.9897C305.934 59.2608 307.594 59.9703 309.313 59.9703C312.871 59.9703 316.013 57.162 316.013 52.7278C316.013 48.3823 312.871 45.574 309.313 45.574C307.594 45.574 305.934 46.313 305.252 47.5842V45.8696H301.161Z" fill="white"/>
<path d="M319.321 58.847C319.321 59.4973 319.884 59.9703 320.536 59.9703C321.218 59.9703 321.781 59.4973 321.781 58.847C321.781 58.1671 321.218 57.6941 320.536 57.6941C319.884 57.6941 319.321 58.1671 319.321 58.847Z" fill="white"/>
<path d="M327.841 45.8696V59.6747H326.507V45.8696H327.841ZM325.973 40.7555C325.973 41.3763 326.507 41.8493 327.159 41.8493C327.811 41.8493 328.315 41.3763 328.315 40.7555C328.315 40.1348 327.811 39.6618 327.159 39.6618C326.507 39.6618 325.973 40.1348 325.973 40.7555Z" fill="white"/>
<path d="M339.073 58.6401C335.842 58.6401 333.174 56.3047 333.174 52.7278C333.174 49.1509 335.842 46.9043 339.073 46.9043C342.305 46.9043 344.973 49.1509 344.973 52.7278C344.973 56.3047 342.305 58.6401 339.073 58.6401ZM339.073 59.9703C343.016 59.9703 346.307 57.1324 346.307 52.7278C346.307 48.3528 343.016 45.574 339.073 45.574C335.101 45.574 331.84 48.3528 331.84 52.7278C331.84 57.1324 335.101 59.9703 339.073 59.9703Z" fill="white"/>
<path d="M361.188 49.3067C361.619 48.2829 362.253 47.4744 363.09 46.8812C363.927 46.288 364.853 45.9914 365.869 45.9914C367.283 45.9914 368.331 46.3936 369.014 47.1981C369.704 47.9944 370.054 49.2011 370.062 50.8182V59.4235H369.404V50.7938C369.395 49.3799 369.107 48.3357 368.538 47.6613C367.969 46.9787 367.067 46.6374 365.832 46.6374C364.695 46.6374 363.707 47.0437 362.87 47.8563C362.042 48.6607 361.481 49.7009 361.188 50.9766V59.4235H360.53V40.7014H361.188V49.3067Z" fill="#32C27D"/>
<path d="M385.222 59.4235C385.06 58.8628 384.979 58.0583 384.979 57.0101C384.458 57.8552 383.747 58.5093 382.845 58.9725C381.943 59.4357 380.924 59.6673 379.786 59.6673C378.567 59.6673 377.584 59.3382 376.836 58.68C376.097 58.0137 375.727 57.1482 375.727 56.0838C375.727 54.873 376.272 53.906 377.36 53.1828C378.457 52.4515 379.912 52.0777 381.724 52.0614H384.979V50.1356C384.979 49.0305 384.629 48.1732 383.93 47.5637C383.24 46.9543 382.248 46.6496 380.956 46.6496C379.754 46.6496 378.75 46.9584 377.946 47.5759C377.141 48.1935 376.739 48.9573 376.739 49.8674L376.081 49.8431C376.081 48.7704 376.552 47.8603 377.495 47.1128C378.437 46.3652 379.591 45.9914 380.956 45.9914C382.378 45.9914 383.508 46.3489 384.345 47.064C385.182 47.771 385.612 48.7704 385.637 50.0625V56.3641C385.637 57.8105 385.75 58.7937 385.978 59.3138V59.4235H385.222ZM379.786 59.0213C381.021 59.0213 382.082 58.745 382.967 58.1924C383.861 57.6399 384.532 56.8638 384.979 55.8644V52.7318H381.931C380.046 52.7318 378.604 53.1056 377.604 53.8532C376.792 54.4626 376.385 55.2224 376.385 56.1325C376.385 56.937 376.706 57.6196 377.348 58.1802C377.99 58.7409 378.803 59.0213 379.786 59.0213Z" fill="#32C27D"/>
<path d="M400.517 56.1935C400.517 54.5927 399.152 53.5038 396.421 52.9268C394.78 52.5774 393.638 52.1305 392.996 51.5861C392.354 51.0335 392.033 50.2778 392.033 49.3189C392.033 48.352 392.44 47.5556 393.252 46.9299C394.073 46.3042 395.138 45.9914 396.446 45.9914C397.868 45.9914 399.01 46.3327 399.871 47.0152C400.732 47.6897 401.163 48.6039 401.163 49.7577H400.492C400.492 48.872 400.119 48.1326 399.371 47.5394C398.624 46.9462 397.648 46.6496 396.446 46.6496C395.292 46.6496 394.378 46.9015 393.703 47.4053C393.029 47.9091 392.692 48.5389 392.692 49.2946C392.692 49.8878 392.818 50.355 393.069 50.6963C393.321 51.0294 393.732 51.3342 394.301 51.6104C394.869 51.8786 395.698 52.1386 396.787 52.3905C397.876 52.6424 398.737 52.939 399.371 53.2803C400.005 53.6216 400.464 54.0279 400.748 54.4992C401.033 54.9624 401.175 55.5312 401.175 56.2056C401.175 57.2458 400.748 58.0827 399.895 58.7165C399.042 59.3504 397.925 59.6673 396.543 59.6673C395.064 59.6673 393.87 59.3341 392.96 58.6678C392.058 57.9933 391.607 57.1279 391.607 56.0716H392.265C392.33 56.9979 392.736 57.7211 393.484 58.2412C394.24 58.7531 395.259 59.0091 396.543 59.0091C397.722 59.0091 398.676 58.7369 399.408 58.1924C400.147 57.6399 400.517 56.9735 400.517 56.1935Z" fill="#32C27D"/>
<path d="M419.173 59.4235H415.053V40.7014H419.173V59.4235Z" fill="#32C27D"/>
<path d="M431.64 59.4235C431.494 59.1553 431.364 58.7612 431.25 58.2412C430.494 59.1919 429.438 59.6673 428.081 59.6673C426.837 59.6673 425.781 59.2935 424.912 58.5459C424.042 57.7902 423.607 56.8435 423.607 55.7059C423.607 54.2757 424.136 53.195 425.192 52.4637C426.248 51.7323 427.784 51.3667 429.799 51.3667H431.067V50.6719C431.067 49.4611 430.543 48.8558 429.495 48.8558C428.52 48.8558 428.032 49.3352 428.032 50.294H423.924C423.924 49.0183 424.465 47.9822 425.545 47.1859C426.634 46.3895 428.02 45.9914 429.702 45.9914C431.384 45.9914 432.713 46.4017 433.688 47.2225C434.663 48.0432 435.162 49.1686 435.187 50.5988V56.4372C435.203 57.648 435.39 58.5743 435.748 59.2163V59.4235H431.64ZM429.068 56.742C429.58 56.742 430.003 56.6323 430.336 56.4129C430.677 56.1935 430.921 55.9456 431.067 55.6693V53.5607H429.873C428.442 53.5607 427.727 54.2026 427.727 55.4865C427.727 55.8603 427.853 56.165 428.105 56.4007C428.357 56.6282 428.678 56.742 429.068 56.742Z" fill="#32C27D"/>
<path d="M447.824 57.9974C446.955 59.1107 445.781 59.6673 444.302 59.6673C442.855 59.6673 441.758 59.2488 441.011 58.4118C440.271 57.5667 439.901 56.356 439.901 54.7795V46.2352H444.009V54.8039C444.009 55.9334 444.558 56.4982 445.655 56.4982C446.597 56.4982 447.268 56.161 447.666 55.4865V46.2352H451.798V59.4235H447.946L447.824 57.9974Z" fill="#32C27D"/>
<path d="M460.328 46.2352L460.462 47.7831C461.372 46.5886 462.627 45.9914 464.228 45.9914C465.601 45.9914 466.625 46.4017 467.3 47.2225C467.982 48.0432 468.336 49.2783 468.36 50.9279V59.4235H464.24V51.0985C464.24 50.4322 464.106 49.9446 463.838 49.6358C463.57 49.3189 463.082 49.1605 462.375 49.1605C461.571 49.1605 460.974 49.4774 460.584 50.1112V59.4235H456.476V46.2352H460.328Z" fill="#32C27D"/>
<path d="M478.718 56.4982C479.295 56.4982 479.742 56.3438 480.059 56.035C480.376 55.7181 480.53 55.2793 480.522 54.7186H484.374C484.374 56.165 483.854 57.3514 482.814 58.2777C481.782 59.2041 480.449 59.6673 478.816 59.6673C476.898 59.6673 475.387 59.066 474.281 57.8633C473.176 56.6607 472.624 54.9949 472.624 52.8659V52.6953C472.624 51.3626 472.867 50.1884 473.355 49.1727C473.851 48.1488 474.562 47.3647 475.488 46.8202C476.414 46.2677 477.511 45.9914 478.779 45.9914C480.494 45.9914 481.855 46.4667 482.862 47.4175C483.87 48.3682 484.374 49.6562 484.374 51.2813H480.522C480.522 50.5988 480.356 50.0746 480.022 49.709C479.689 49.3433 479.242 49.1605 478.682 49.1605C477.617 49.1605 476.995 49.839 476.817 51.196C476.76 51.6267 476.731 52.2199 476.731 52.9756C476.731 54.3001 476.89 55.2183 477.207 55.7303C477.524 56.2422 478.027 56.4982 478.718 56.4982Z" fill="#32C27D"/>
<path d="M492.623 47.6491C493.501 46.5439 494.622 45.9914 495.987 45.9914C497.442 45.9914 498.539 46.4221 499.278 47.2834C500.018 48.1447 500.396 49.4164 500.412 51.0985V59.4235H496.292V51.196C496.292 50.4972 496.15 49.9853 495.865 49.6602C495.581 49.3271 495.098 49.1605 494.415 49.1605C493.57 49.1605 492.973 49.4286 492.623 49.9649V59.4235H488.516V40.7014H492.623V47.6491Z" fill="#32C27D"/>
<path d="M511.574 59.6673C509.551 59.6673 507.914 59.066 506.662 57.8633C505.411 56.6526 504.785 55.0802 504.785 53.1462V52.805C504.785 51.4561 505.033 50.2656 505.529 49.2336C506.033 48.2016 506.764 47.4053 507.723 46.8446C508.682 46.2758 509.819 45.9914 511.136 45.9914C512.988 45.9914 514.451 46.5683 515.524 47.7222C516.596 48.868 517.133 50.4688 517.133 52.5246V54.1213H508.966C509.112 54.8608 509.433 55.4418 509.929 55.8644C510.425 56.2869 511.067 56.4982 511.855 56.4982C513.155 56.4982 514.171 56.0431 514.902 55.133L516.779 57.3514C516.267 58.0583 515.54 58.6231 514.597 59.0456C513.663 59.4601 512.655 59.6673 511.574 59.6673ZM511.111 49.1605C509.909 49.1605 509.194 49.9568 508.966 51.5495H513.11V51.2326C513.126 50.5744 512.96 50.0665 512.61 49.709C512.261 49.3433 511.761 49.1605 511.111 49.1605Z" fill="#32C27D"/>
<path d="M520.775 52.7318C520.775 50.6435 521.226 48.998 522.128 47.7953C523.03 46.5927 524.289 45.9914 525.906 45.9914C527.084 45.9914 528.076 46.4546 528.88 47.3809V40.7014H533V59.4235H529.307L529.1 58.0096C528.254 59.1147 527.182 59.6673 525.882 59.6673C524.313 59.6673 523.07 59.066 522.152 57.8633C521.234 56.6607 520.775 54.9502 520.775 52.7318ZM524.882 52.9878C524.882 55.328 525.565 56.4982 526.93 56.4982C527.84 56.4982 528.49 56.1163 528.88 55.3524V50.3306C528.506 49.5505 527.864 49.1605 526.954 49.1605C525.687 49.1605 525 50.1843 524.894 52.2321L524.882 52.9878Z" fill="#32C27D"/>
<path d="M362.145 76.8196C362.527 76.8196 362.861 76.7038 363.147 76.4722C363.432 76.2406 363.591 75.9511 363.621 75.6038H364.635C364.615 75.9627 364.492 76.3043 364.264 76.6285C364.036 76.9528 363.731 77.2114 363.349 77.4044C362.971 77.5974 362.57 77.6938 362.145 77.6938C361.292 77.6938 360.613 77.4101 360.107 76.8428C359.605 76.2715 359.354 75.4918 359.354 74.5037V74.3242C359.354 73.7144 359.466 73.1721 359.69 72.6973C359.914 72.2226 360.234 71.854 360.651 71.5915C361.072 71.329 361.568 71.1978 362.139 71.1978C362.842 71.1978 363.425 71.4082 363.888 71.8289C364.355 72.2496 364.604 72.7958 364.635 73.4674H363.621C363.591 73.0621 363.436 72.7301 363.158 72.4715C362.884 72.2091 362.545 72.0778 362.139 72.0778C361.595 72.0778 361.172 72.2747 360.871 72.6684C360.574 73.0582 360.426 73.6237 360.426 74.3648V74.5674C360.426 75.2892 360.574 75.845 360.871 76.2348C361.169 76.6247 361.593 76.8196 362.145 76.8196Z" fill="#8B8B8B"/>
<path d="M365.555 74.3879C365.555 73.7742 365.675 73.2223 365.914 72.7321C366.157 72.2419 366.493 71.8636 366.922 71.5973C367.354 71.331 367.846 71.1978 368.398 71.1978C369.251 71.1978 369.94 71.4931 370.465 72.0836C370.994 72.6742 371.258 73.4596 371.258 74.44V74.5153C371.258 75.1251 371.14 75.6732 370.905 76.1596C370.673 76.642 370.339 77.0184 369.903 77.2886C369.471 77.5588 368.973 77.6938 368.41 77.6938C367.56 77.6938 366.871 77.3986 366.343 76.808C365.818 76.2175 365.555 75.4359 365.555 74.4632V74.3879ZM366.632 74.5153C366.632 75.2101 366.792 75.7678 367.113 76.1885C367.437 76.6092 367.869 76.8196 368.41 76.8196C368.954 76.8196 369.386 76.6073 369.706 76.1827C370.027 75.7543 370.187 75.156 370.187 74.3879C370.187 73.7009 370.023 73.1451 369.695 72.7205C369.371 72.292 368.938 72.0778 368.398 72.0778C367.869 72.0778 367.443 72.2882 367.118 72.7089C366.794 73.1296 366.632 73.7318 366.632 74.5153Z" fill="#8B8B8B"/>
<path d="M373.614 71.3136L373.649 72.101C374.128 71.4989 374.753 71.1978 375.525 71.1978C376.849 71.1978 377.517 71.9447 377.528 73.4384V77.5781H376.457V73.4326C376.453 72.981 376.349 72.6472 376.145 72.431C375.944 72.2149 375.629 72.1068 375.201 72.1068C374.853 72.1068 374.549 72.1994 374.286 72.3847C374.024 72.57 373.819 72.8131 373.672 73.1142V77.5781H372.601V71.3136H373.614Z" fill="#8B8B8B"/>
<path d="M380.597 69.7967V71.3136H381.766V72.1415H380.597V76.0264C380.597 76.2773 380.649 76.4664 380.753 76.5938C380.857 76.7173 381.035 76.7791 381.286 76.7791C381.409 76.7791 381.579 76.7559 381.795 76.7096V77.5781C381.514 77.6552 381.24 77.6938 380.973 77.6938C380.495 77.6938 380.134 77.5491 379.891 77.2596C379.647 76.9701 379.526 76.5591 379.526 76.0264V72.1415H378.385V71.3136H379.526V69.7967H380.597Z" fill="#8B8B8B"/>
<path d="M385.622 77.6938C384.773 77.6938 384.082 77.4159 383.55 76.8601C383.017 76.3005 382.751 75.5536 382.751 74.6195V74.4227C382.751 73.8012 382.868 73.2474 383.104 72.761C383.343 72.2708 383.675 71.8887 384.1 71.6147C384.528 71.3367 384.991 71.1978 385.489 71.1978C386.304 71.1978 386.937 71.4661 387.388 72.0026C387.84 72.5391 388.066 73.3072 388.066 74.3069V74.7527H383.822C383.837 75.3702 384.017 75.8701 384.36 76.2522C384.708 76.6305 385.148 76.8196 385.68 76.8196C386.058 76.8196 386.379 76.7424 386.641 76.588C386.904 76.4336 387.133 76.229 387.33 75.9743L387.985 76.4838C387.46 77.2905 386.672 77.6938 385.622 77.6938ZM385.489 72.0778C385.057 72.0778 384.694 72.2361 384.401 72.5526C384.107 72.8652 383.926 73.3052 383.856 73.8726H386.994V73.7916C386.964 73.2473 386.817 72.8266 386.554 72.5294C386.292 72.2284 385.937 72.0778 385.489 72.0778Z" fill="#8B8B8B"/>
<path d="M390.324 71.3136L390.358 72.101C390.837 71.4989 391.462 71.1978 392.234 71.1978C393.558 71.1978 394.226 71.9447 394.237 73.4384V77.5781H393.166V73.4326C393.162 72.981 393.058 72.6472 392.854 72.431C392.653 72.2149 392.338 72.1068 391.91 72.1068C391.563 72.1068 391.258 72.1994 390.995 72.3847C390.733 72.57 390.528 72.8131 390.381 73.1142V77.5781H389.31V71.3136H390.324Z" fill="#8B8B8B"/>
<path d="M397.306 69.7967V71.3136H398.475V72.1415H397.306V76.0264C397.306 76.2773 397.358 76.4664 397.462 76.5938C397.566 76.7173 397.744 76.7791 397.995 76.7791C398.118 76.7791 398.288 76.7559 398.504 76.7096V77.5781C398.223 77.6552 397.949 77.6938 397.682 77.6938C397.204 77.6938 396.843 77.5491 396.6 77.2596C396.356 76.9701 396.235 76.5591 396.235 76.0264V72.1415H395.094V71.3136H396.235V69.7967H397.306Z" fill="#8B8B8B"/>
<path d="M403.2 77.5781V72.1415H402.21V71.3136H403.2V70.6709C403.2 69.9993 403.379 69.4802 403.738 69.1135C404.097 68.7468 404.605 68.5635 405.261 68.5635C405.508 68.5635 405.753 68.5963 405.996 68.6619L405.938 69.5304C405.757 69.4956 405.564 69.4783 405.359 69.4783C405.012 69.4783 404.744 69.5805 404.555 69.7851C404.366 69.9858 404.271 70.2753 404.271 70.6536V71.3136H405.608V72.1415H404.271V77.5781H403.2Z" fill="#8B8B8B"/>
<path d="M406.512 74.3879C406.512 73.7742 406.631 73.2223 406.871 72.7321C407.114 72.2419 407.45 71.8636 407.878 71.5973C408.31 71.331 408.802 71.1978 409.354 71.1978C410.207 71.1978 410.896 71.4931 411.421 72.0836C411.95 72.6742 412.214 73.4596 412.214 74.44V74.5153C412.214 75.1251 412.097 75.6732 411.861 76.1596C411.63 76.642 411.296 77.0184 410.86 77.2886C410.427 77.5588 409.929 77.6938 409.366 77.6938C408.517 77.6938 407.828 77.3986 407.299 76.808C406.774 76.2175 406.512 75.4359 406.512 74.4632V74.3879ZM407.588 74.5153C407.588 75.2101 407.749 75.7678 408.069 76.1885C408.393 76.6092 408.826 76.8196 409.366 76.8196C409.91 76.8196 410.342 76.6073 410.663 76.1827C410.983 75.7543 411.143 75.156 411.143 74.3879C411.143 73.7009 410.979 73.1451 410.651 72.7205C410.327 72.292 409.895 72.0778 409.354 72.0778C408.826 72.0778 408.399 72.2882 408.075 72.7089C407.751 73.1296 407.588 73.7318 407.588 74.5153Z" fill="#8B8B8B"/>
<path d="M416.586 72.2747C416.424 72.2477 416.248 72.2342 416.059 72.2342C415.356 72.2342 414.88 72.5333 414.629 73.1316V77.5781H413.558V71.3136H414.6L414.617 72.0373C414.968 71.4776 415.466 71.1978 416.111 71.1978C416.319 71.1978 416.478 71.2248 416.586 71.2788V72.2747Z" fill="#8B8B8B"/>
<path d="M424.384 77.5781C424.323 77.4545 424.272 77.2345 424.234 76.918C423.736 77.4352 423.142 77.6938 422.451 77.6938C421.833 77.6938 421.326 77.5202 420.928 77.1728C420.534 76.8215 420.337 76.3777 420.337 75.8411C420.337 75.1888 420.584 74.6832 421.079 74.3242C421.576 73.9614 422.275 73.78 423.174 73.78H424.217V73.2879C424.217 72.9135 424.105 72.6163 423.881 72.3963C423.657 72.1724 423.327 72.0605 422.891 72.0605C422.509 72.0605 422.188 72.157 421.93 72.3499C421.671 72.5429 421.542 72.7765 421.542 73.0505H420.465C420.465 72.7379 420.575 72.4368 420.795 72.1473C421.019 71.854 421.32 71.6224 421.698 71.4525C422.08 71.2827 422.499 71.1978 422.954 71.1978C423.676 71.1978 424.242 71.3792 424.651 71.742C425.06 72.101 425.272 72.597 425.288 73.23V76.1133C425.288 76.6884 425.361 77.1458 425.508 77.4854V77.5781H424.384ZM422.607 76.7617C422.943 76.7617 423.261 76.6749 423.562 76.5012C423.863 76.3275 424.081 76.1017 424.217 75.8238V74.5385H423.377C422.065 74.5385 421.409 74.9225 421.409 75.6906C421.409 76.0264 421.52 76.2889 421.744 76.478C421.968 76.6671 422.256 76.7617 422.607 76.7617Z" fill="#8B8B8B"/>
<path d="M427.974 71.3136L428.003 72.0084C428.462 71.468 429.082 71.1978 429.861 71.1978C430.738 71.1978 431.334 71.5336 431.651 72.2052C431.859 71.9041 432.129 71.661 432.461 71.4757C432.797 71.2904 433.192 71.1978 433.648 71.1978C435.022 71.1978 435.721 71.9254 435.744 73.3805V77.5781H434.673V73.4442C434.673 72.9965 434.57 72.6626 434.366 72.4426C434.161 72.2187 433.818 72.1068 433.335 72.1068C432.938 72.1068 432.608 72.2264 432.345 72.4657C432.083 72.7012 431.93 73.0196 431.888 73.421V77.5781H430.811V73.4731C430.811 72.5622 430.365 72.1068 429.474 72.1068C428.771 72.1068 428.291 72.4059 428.032 73.0042V77.5781H426.961V71.3136H427.974Z" fill="#8B8B8B"/>
<path d="M442.668 74.5153C442.668 75.4725 442.448 76.2426 442.008 76.8254C441.568 77.4044 440.978 77.6938 440.237 77.6938C439.445 77.6938 438.834 77.414 438.401 76.8543L438.349 77.5781H437.365V68.6851H438.436V72.0026C438.868 71.4661 439.465 71.1978 440.225 71.1978C440.985 71.1978 441.582 71.4853 442.014 72.0605C442.45 72.6356 442.668 73.423 442.668 74.4227V74.5153ZM441.597 74.3937C441.597 73.6642 441.456 73.1007 441.175 72.7031C440.893 72.3056 440.488 72.1068 439.959 72.1068C439.252 72.1068 438.745 72.4349 438.436 73.091V75.8006C438.764 76.4568 439.276 76.7849 439.97 76.7849C440.484 76.7849 440.883 76.5861 441.169 76.1885C441.454 75.791 441.597 75.1927 441.597 74.3937Z" fill="#8B8B8B"/>
<path d="M445.187 77.5781H444.116V71.3136H445.187V77.5781ZM444.029 69.6519C444.029 69.4783 444.081 69.3316 444.185 69.2119C444.293 69.0923 444.452 69.0324 444.66 69.0324C444.868 69.0324 445.027 69.0923 445.135 69.2119C445.243 69.3316 445.297 69.4783 445.297 69.6519C445.297 69.8256 445.243 69.9704 445.135 70.0862C445.027 70.202 444.868 70.2599 444.66 70.2599C444.452 70.2599 444.293 70.202 444.185 70.0862C444.081 69.9704 444.029 69.8256 444.029 69.6519Z" fill="#8B8B8B"/>
<path d="M448.36 69.7967V71.3136H449.529V72.1415H448.36V76.0264C448.36 76.2773 448.412 76.4664 448.516 76.5938C448.62 76.7173 448.798 76.7791 449.049 76.7791C449.172 76.7791 449.342 76.7559 449.558 76.7096V77.5781C449.276 77.6552 449.002 77.6938 448.736 77.6938C448.257 77.6938 447.896 77.5491 447.653 77.2596C447.41 76.9701 447.289 76.5591 447.289 76.0264V72.1415H446.148V71.3136H447.289V69.7967H448.36Z" fill="#8B8B8B"/>
<path d="M451.949 77.5781H450.878V71.3136H451.949V77.5781ZM450.791 69.6519C450.791 69.4783 450.843 69.3316 450.948 69.2119C451.056 69.0923 451.214 69.0324 451.422 69.0324C451.631 69.0324 451.789 69.0923 451.897 69.2119C452.005 69.3316 452.059 69.4783 452.059 69.6519C452.059 69.8256 452.005 69.9704 451.897 70.0862C451.789 70.202 451.631 70.2599 451.422 70.2599C451.214 70.2599 451.056 70.202 450.948 70.0862C450.843 69.9704 450.791 69.8256 450.791 69.6519Z" fill="#8B8B8B"/>
<path d="M453.385 74.3879C453.385 73.7742 453.505 73.2223 453.744 72.7321C453.987 72.2419 454.323 71.8636 454.751 71.5973C455.184 71.331 455.676 71.1978 456.228 71.1978C457.081 71.1978 457.77 71.4931 458.295 72.0836C458.824 72.6742 459.088 73.4596 459.088 74.44V74.5153C459.088 75.1251 458.97 75.6732 458.735 76.1596C458.503 76.642 458.169 77.0184 457.733 77.2886C457.301 77.5588 456.803 77.6938 456.239 77.6938C455.39 77.6938 454.701 77.3986 454.172 76.808C453.648 76.2175 453.385 75.4359 453.385 74.4632V74.3879ZM454.462 74.5153C454.462 75.2101 454.622 75.7678 454.942 76.1885C455.267 76.6092 455.699 76.8196 456.239 76.8196C456.784 76.8196 457.216 76.6073 457.536 76.1827C457.857 75.7543 458.017 75.156 458.017 74.3879C458.017 73.7009 457.853 73.1451 457.525 72.7205C457.2 72.292 456.768 72.0778 456.228 72.0778C455.699 72.0778 455.273 72.2882 454.948 72.7089C454.624 73.1296 454.462 73.7318 454.462 74.5153Z" fill="#8B8B8B"/>
<path d="M464.299 76.9586C463.882 77.4487 463.27 77.6938 462.463 77.6938C461.796 77.6938 461.286 77.5009 460.935 77.1149C460.587 76.725 460.412 76.1499 460.408 75.3895V71.3136H461.479V75.3606C461.479 76.3101 461.865 76.7849 462.637 76.7849C463.455 76.7849 464 76.4799 464.27 75.8701V71.3136H465.341V77.5781H464.322L464.299 76.9586Z" fill="#8B8B8B"/>
<path d="M470.621 75.9164C470.621 75.6269 470.511 75.4031 470.291 75.2448C470.075 75.0827 469.695 74.9437 469.15 74.8279C468.61 74.7121 468.18 74.5732 467.859 74.4111C467.543 74.249 467.307 74.056 467.153 73.8321C467.002 73.6082 466.927 73.3419 466.927 73.0331C466.927 72.5198 467.143 72.0855 467.576 71.7304C468.012 71.3753 468.568 71.1978 469.243 71.1978C469.953 71.1978 470.528 71.3811 470.968 71.7478C471.412 72.1145 471.634 72.5835 471.634 73.1547H470.557C470.557 72.8614 470.432 72.6086 470.181 72.3963C469.934 72.184 469.621 72.0778 469.243 72.0778C468.853 72.0778 468.548 72.1627 468.328 72.3326C468.108 72.5024 467.998 72.7243 467.998 72.9984C467.998 73.257 468.101 73.4519 468.305 73.5832C468.51 73.7144 468.878 73.8398 469.411 73.9595C469.947 74.0791 470.382 74.222 470.714 74.3879C471.046 74.5539 471.291 74.7546 471.449 74.9901C471.611 75.2216 471.692 75.5053 471.692 75.8411C471.692 76.4008 471.468 76.8505 471.021 77.1901C470.573 77.5259 469.992 77.6938 469.278 77.6938C468.776 77.6938 468.332 77.6051 467.946 77.4275C467.56 77.25 467.257 77.0029 467.037 76.6864C466.821 76.3661 466.713 76.0206 466.713 75.6501H467.784C467.803 76.009 467.946 76.2947 468.213 76.507C468.483 76.7154 468.838 76.8196 469.278 76.8196C469.683 76.8196 470.007 76.7385 470.25 76.5764C470.498 76.4105 470.621 76.1905 470.621 75.9164Z" fill="#8B8B8B"/>
<path d="M475.768 74.3937C475.768 73.4326 475.996 72.6607 476.451 72.0778C476.907 71.4911 477.503 71.1978 478.24 71.1978C478.974 71.1978 479.555 71.4487 479.983 71.9505V68.6851H481.054V77.5781H480.07L480.018 76.9064C479.589 77.4314 478.993 77.6938 478.229 77.6938C477.503 77.6938 476.911 77.3966 476.451 76.8022C475.996 76.2078 475.768 75.432 475.768 74.4748V74.3937ZM476.839 74.5153C476.839 75.2255 476.986 75.7813 477.279 76.1827C477.573 76.5842 477.978 76.7849 478.495 76.7849C479.174 76.7849 479.67 76.4799 479.983 75.8701V72.9926C479.663 72.4021 479.17 72.1068 478.507 72.1068C477.982 72.1068 477.573 72.3094 477.279 72.7147C476.986 73.12 476.839 73.7202 476.839 74.5153Z" fill="#8B8B8B"/>
<path d="M485.321 77.6938C484.472 77.6938 483.781 77.4159 483.248 76.8601C482.716 76.3005 482.449 75.5536 482.449 74.6195V74.4227C482.449 73.8012 482.567 73.2474 482.803 72.761C483.042 72.2708 483.374 71.8887 483.798 71.6147C484.227 71.3367 484.69 71.1978 485.188 71.1978C486.002 71.1978 486.635 71.4661 487.087 72.0026C487.539 72.5391 487.764 73.3072 487.764 74.3069V74.7527H483.52C483.536 75.3702 483.715 75.8701 484.059 76.2522C484.406 76.6305 484.846 76.8196 485.379 76.8196C485.757 76.8196 486.078 76.7424 486.34 76.588C486.603 76.4336 486.832 76.229 487.029 75.9743L487.683 76.4838C487.158 77.2905 486.371 77.6938 485.321 77.6938ZM485.188 72.0778C484.756 72.0778 484.393 72.2361 484.099 72.5526C483.806 72.8652 483.625 73.3052 483.555 73.8726H486.693V73.7916C486.662 73.2473 486.516 72.8266 486.253 72.5294C485.991 72.2284 485.636 72.0778 485.188 72.0778Z" fill="#8B8B8B"/>
<path d="M490.995 76.1248L492.547 71.3136H493.641L491.394 77.5781H490.578L488.309 71.3136H489.403L490.995 76.1248Z" fill="#8B8B8B"/>
<path d="M497.19 77.6938C496.341 77.6938 495.65 77.4159 495.117 76.8601C494.585 76.3005 494.318 75.5536 494.318 74.6195V74.4227C494.318 73.8012 494.436 73.2474 494.671 72.761C494.911 72.2708 495.243 71.8887 495.667 71.6147C496.096 71.3367 496.559 71.1978 497.057 71.1978C497.871 71.1978 498.504 71.4661 498.956 72.0026C499.407 72.5391 499.633 73.3072 499.633 74.3069V74.7527H495.389C495.405 75.3702 495.584 75.8701 495.928 76.2522C496.275 76.6305 496.715 76.8196 497.248 76.8196C497.626 76.8196 497.947 76.7424 498.209 76.588C498.471 76.4336 498.701 76.229 498.898 75.9743L499.552 76.4838C499.027 77.2905 498.24 77.6938 497.19 77.6938ZM497.057 72.0778C496.625 72.0778 496.262 72.2361 495.968 72.5526C495.675 72.8652 495.494 73.3052 495.424 73.8726H498.562V73.7916C498.531 73.2473 498.385 72.8266 498.122 72.5294C497.86 72.2284 497.505 72.0778 497.057 72.0778Z" fill="#8B8B8B"/>
<path d="M502.042 77.5781H500.971V68.6851H502.042V77.5781Z" fill="#8B8B8B"/>
<path d="M503.478 74.3879C503.478 73.7742 503.597 73.2223 503.837 72.7321C504.08 72.2419 504.416 71.8636 504.844 71.5973C505.276 71.331 505.768 71.1978 506.32 71.1978C507.173 71.1978 507.862 71.4931 508.387 72.0836C508.916 72.6742 509.18 73.4596 509.18 74.44V74.5153C509.18 75.1251 509.063 75.6732 508.827 76.1596C508.596 76.642 508.262 77.0184 507.826 77.2886C507.393 77.5588 506.895 77.6938 506.332 77.6938C505.483 77.6938 504.794 77.3986 504.265 76.808C503.74 76.2175 503.478 75.4359 503.478 74.4632V74.3879ZM504.555 74.5153C504.555 75.2101 504.715 75.7678 505.035 76.1885C505.359 76.6092 505.792 76.8196 506.332 76.8196C506.876 76.8196 507.308 76.6073 507.629 76.1827C507.949 75.7543 508.109 75.156 508.109 74.3879C508.109 73.7009 507.945 73.1451 507.617 72.7205C507.293 72.292 506.861 72.0778 506.32 72.0778C505.792 72.0778 505.365 72.2882 505.041 72.7089C504.717 73.1296 504.555 73.7318 504.555 74.5153Z" fill="#8B8B8B"/>
<path d="M515.815 74.5153C515.815 75.4687 515.597 76.2368 515.161 76.8196C514.725 77.4024 514.135 77.6938 513.39 77.6938C512.629 77.6938 512.031 77.4526 511.595 76.9701V79.9866H510.524V71.3136H511.502L511.554 72.0084C511.99 71.468 512.596 71.1978 513.372 71.1978C514.125 71.1978 514.719 71.4815 515.155 72.0489C515.595 72.6163 515.815 73.4056 515.815 74.4169V74.5153ZM514.744 74.3937C514.744 73.6874 514.594 73.1296 514.293 72.7205C513.992 72.3113 513.579 72.1068 513.054 72.1068C512.405 72.1068 511.919 72.3943 511.595 72.9694V75.9627C511.915 76.534 512.405 76.8196 513.065 76.8196C513.579 76.8196 513.986 76.617 514.287 76.2117C514.592 75.8025 514.744 75.1966 514.744 74.3937Z" fill="#8B8B8B"/>
<path d="M519.781 77.6938C518.932 77.6938 518.241 77.4159 517.709 76.8601C517.176 76.3005 516.91 75.5536 516.91 74.6195V74.4227C516.91 73.8012 517.027 73.2474 517.263 72.761C517.502 72.2708 517.834 71.8887 518.259 71.6147C518.687 71.3367 519.15 71.1978 519.648 71.1978C520.463 71.1978 521.096 71.4661 521.547 72.0026C521.999 72.5391 522.225 73.3072 522.225 74.3069V74.7527H517.981C517.996 75.3702 518.176 75.8701 518.519 76.2522C518.867 76.6305 519.307 76.8196 519.839 76.8196C520.218 76.8196 520.538 76.7424 520.8 76.588C521.063 76.4336 521.293 76.229 521.489 75.9743L522.144 76.4838C521.619 77.2905 520.831 77.6938 519.781 77.6938ZM519.648 72.0778C519.216 72.0778 518.853 72.2361 518.56 72.5526C518.266 72.8652 518.085 73.3052 518.016 73.8726H521.154V73.7916C521.123 73.2473 520.976 72.8266 520.714 72.5294C520.451 72.2284 520.096 72.0778 519.648 72.0778Z" fill="#8B8B8B"/>
<path d="M526.497 72.2747C526.335 72.2477 526.16 72.2342 525.971 72.2342C525.268 72.2342 524.791 72.5333 524.541 73.1316V77.5781H523.469V71.3136H524.512L524.529 72.0373C524.88 71.4776 525.378 71.1978 526.023 71.1978C526.231 71.1978 526.389 71.2248 526.497 71.2788V72.2747Z" fill="#8B8B8B"/>
<path d="M531.135 75.9164C531.135 75.6269 531.025 75.4031 530.805 75.2448C530.589 75.0827 530.209 74.9437 529.664 74.8279C529.124 74.7121 528.694 74.5732 528.373 74.4111C528.057 74.249 527.821 74.056 527.667 73.8321C527.516 73.6082 527.441 73.3419 527.441 73.0331C527.441 72.5198 527.657 72.0855 528.09 71.7304C528.526 71.3753 529.082 71.1978 529.757 71.1978C530.467 71.1978 531.042 71.3811 531.482 71.7478C531.926 72.1145 532.148 72.5835 532.148 73.1547H531.071C531.071 72.8614 530.946 72.6086 530.695 72.3963C530.448 72.184 530.135 72.0778 529.757 72.0778C529.367 72.0778 529.062 72.1627 528.842 72.3326C528.622 72.5024 528.512 72.7243 528.512 72.9984C528.512 73.257 528.615 73.4519 528.819 73.5832C529.024 73.7144 529.392 73.8398 529.925 73.9595C530.462 74.0791 530.896 74.222 531.228 74.3879C531.56 74.5539 531.805 74.7546 531.963 74.9901C532.125 75.2216 532.206 75.5053 532.206 75.8411C532.206 76.4008 531.982 76.8505 531.535 77.1901C531.087 77.5259 530.506 77.6938 529.792 77.6938C529.29 77.6938 528.846 77.6051 528.46 77.4275C528.074 77.25 527.771 77.0029 527.551 76.6864C527.335 76.3661 527.227 76.0206 527.227 75.6501H528.298C528.317 76.009 528.46 76.2947 528.727 76.507C528.997 76.7154 529.352 76.8196 529.792 76.8196C530.197 76.8196 530.521 76.7385 530.764 76.5764C531.012 76.4105 531.135 76.1905 531.135 75.9164Z" fill="#8B8B8B"/>
<path d="M43.8882 138H-11V-21.9992H43.8882C44.5818 -22.0115 45.2708 -21.8826 45.915 -21.6201C46.5592 -21.3576 47.1458 -20.9668 47.6406 -20.4703C48.1353 -19.9738 48.5282 -19.3818 48.7964 -18.7286C49.0646 -18.0754 49.2028 -17.3743 49.2028 -16.666C49.2028 -15.9578 49.0646 -15.2566 48.7964 -14.6034C48.5282 -13.9502 48.1353 -13.3581 47.6406 -12.8617C47.1458 -12.3652 46.5592 -11.9744 45.915 -11.7119C45.2708 -11.4494 44.5818 -11.3205 43.8882 -11.3328H38.6659C37.9799 -11.3328 37.3007 -11.1948 36.667 -10.9268C36.0333 -10.6587 35.4575 -10.2657 34.9725 -9.7704C34.4876 -9.27507 34.1029 -8.68706 33.8406 -8.03992C33.5782 -7.39278 33.4433 -6.69917 33.4435 -5.99878C33.4433 -5.29839 33.5782 -4.60484 33.8406 -3.95769C34.1029 -3.31055 34.4876 -2.7225 34.9725 -2.22717C35.4575 -1.73186 36.0333 -1.33893 36.667 -1.07085C37.3007 -0.80278 37.9799 -0.664795 38.6659 -0.664795H64.7776C65.4638 -0.664993 66.1432 -0.527115 66.7771 -0.259003C67.411 0.00909424 67.987 0.402161 68.472 0.897705C68.957 1.39323 69.3416 1.98154 69.6038 2.62895C69.866 3.27638 70.0006 3.97023 70 4.67082C70.0002 5.37122 69.8653 6.06479 69.6029 6.71193C69.3406 7.35907 68.9559 7.9471 68.471 8.44243C67.986 8.93776 67.4102 9.33067 66.7765 9.59875C66.1428 9.86684 65.4636 10.0048 64.7776 10.0048H49.1121C48.4262 10.0046 47.7469 10.1424 47.1132 10.4103C46.4794 10.6781 45.9035 11.0709 45.4184 11.5661C44.9333 12.0612 44.5484 12.6492 44.2859 13.2962C44.0233 13.9433 43.8882 14.6368 43.8882 15.3372C43.8882 16.0376 44.0233 16.7311 44.2859 17.3782C44.5484 18.0253 44.9333 18.6132 45.4184 19.1084C45.9035 19.6035 46.4794 19.9963 47.1132 20.2642C47.7469 20.5321 48.4262 20.6698 49.1121 20.6696H54.3345C55.7197 20.6696 57.0482 21.2314 58.0278 22.2313C59.0075 23.2313 59.558 24.5876 59.5584 26.002C59.5584 27.4167 59.0081 28.7734 58.0284 29.7737C57.0487 30.774 55.72 31.336 54.3345 31.336H38.6659C37.9791 31.336 37.2991 31.4743 36.6648 31.743C36.0305 32.0117 35.4543 32.4055 34.9692 32.9018C34.4841 33.3982 34.0997 33.9873 33.8379 34.6356C33.5761 35.2838 33.4421 35.9784 33.4435 36.6796C33.4435 38.0939 33.9937 39.4502 34.9731 40.4502C35.9525 41.4502 37.2808 42.012 38.6659 42.012H64.7776C66.1472 42.0363 67.4526 42.6089 68.4128 43.6064C69.3729 44.6039 69.9109 45.9466 69.9109 47.3452C69.9109 48.7439 69.3729 50.0866 68.4128 51.0841C67.4526 52.0816 66.1472 52.6542 64.7776 52.6785H49.1074C47.722 52.6785 46.3932 53.2404 45.4136 54.2407C44.4339 55.2411 43.8835 56.5978 43.8835 58.0125C43.8835 59.4271 44.4339 60.7838 45.4136 61.7842C46.3932 62.7845 47.722 63.3465 49.1074 63.3465H54.3298C55.0157 63.3462 55.695 63.484 56.3288 63.7519C56.9626 64.0198 57.5385 64.4125 58.0236 64.9077C58.5087 65.4029 58.8935 65.9908 59.156 66.6379C59.4186 67.2849 59.5537 67.9785 59.5537 68.6788C59.5533 70.0932 59.0027 71.4495 58.0231 72.4495C57.0435 73.4495 55.715 74.0112 54.3298 74.0112H28.218C26.8328 74.0112 25.5043 74.573 24.5247 75.573C23.5451 76.5729 22.9945 77.9292 22.9941 79.3436C22.9941 80.044 23.1292 80.7376 23.3918 81.3846C23.6543 82.0317 24.0391 82.6196 24.5242 83.1148C25.0093 83.61 25.5852 84.0027 26.219 84.2706C26.8528 84.5385 27.5321 84.6762 28.218 84.676H64.7776C66.1622 84.676 67.49 85.2374 68.4693 86.2367C69.4486 87.236 69.9992 88.5915 70 90.0052C70.0002 90.7056 69.8653 91.3992 69.6029 92.0463C69.3406 92.6935 68.9559 93.2815 68.471 93.7768C67.986 94.2722 67.4102 94.6651 66.7765 94.9332C66.1428 95.2012 65.4636 95.3392 64.7776 95.3392H49.1121C47.7269 95.3392 46.3985 95.901 45.4188 96.9009C44.4392 97.9009 43.8886 99.2572 43.8882 100.672C43.8882 101.372 44.0233 102.066 44.2859 102.713C44.5484 103.36 44.9333 103.948 45.4184 104.443C45.9035 104.938 46.4794 105.331 47.1132 105.599C47.7469 105.866 48.4262 106.004 49.1121 106.004H54.3345C55.0205 106.004 55.6998 106.142 56.3336 106.41C56.9674 106.678 57.5433 107.071 58.0284 107.566C59.0081 108.567 59.5584 109.923 59.5584 111.338C59.558 112.752 59.0075 114.109 58.0278 115.109C57.0482 116.109 55.7197 116.67 54.3345 116.67H17.7764C17.0905 116.67 16.4113 116.808 15.7776 117.076C15.1439 117.345 14.5681 117.737 14.0831 118.233C13.5982 118.728 13.2135 119.316 12.9512 119.963C12.6888 120.61 12.5539 121.304 12.5541 122.004C12.5545 123.418 13.1049 124.774 14.0842 125.774C15.0636 126.774 16.3917 127.335 17.7764 127.335H43.8882C44.5742 127.335 45.2534 127.473 45.8872 127.741C46.521 128.009 47.0969 128.401 47.582 128.896C48.0671 129.392 48.4519 129.98 48.7145 130.627C48.977 131.274 49.1121 131.967 49.1121 132.668C49.1121 133.368 48.977 134.062 48.7145 134.709C48.4519 135.356 48.0671 135.944 47.582 136.439C47.0969 136.934 46.521 137.327 45.8872 137.595C45.2534 137.862 44.5742 138 43.8882 138Z" fill="#F75D5C" fill-opacity="0.21"/>
<path d="M689.046 -27H748V141.999H689.046C688.301 142.012 687.561 141.876 686.869 141.599C686.177 141.321 685.547 140.909 685.016 140.384C684.484 139.86 684.062 139.234 683.774 138.545C683.486 137.855 683.338 137.114 683.338 136.366C683.338 135.618 683.486 134.877 683.774 134.187C684.062 133.497 684.484 132.872 685.016 132.348C685.547 131.823 686.177 131.41 686.869 131.133C687.561 130.856 688.301 130.72 689.046 130.733H694.655C695.392 130.733 696.121 130.587 696.802 130.304C697.483 130.021 698.101 129.606 698.622 129.082C699.143 128.559 699.556 127.938 699.838 127.255C700.12 126.571 700.265 125.839 700.264 125.099C700.265 124.359 700.12 123.626 699.838 122.943C699.556 122.259 699.143 121.638 698.622 121.115C698.101 120.592 697.483 120.177 696.802 119.894C696.121 119.61 695.392 119.465 694.655 119.465H666.609C665.872 119.465 665.142 119.319 664.462 119.036C663.781 118.753 663.162 118.338 662.641 117.814C662.12 117.291 661.707 116.67 661.426 115.986C661.144 115.302 660.999 114.569 661 113.829C661 113.089 661.145 112.357 661.426 111.673C661.708 110.989 662.121 110.368 662.642 109.845C663.163 109.322 663.782 108.907 664.462 108.624C665.143 108.341 665.872 108.195 666.609 108.195H683.435C684.172 108.195 684.901 108.05 685.582 107.767C686.263 107.484 686.881 107.069 687.402 106.546C687.924 106.023 688.337 105.402 688.619 104.718C688.901 104.035 689.046 103.302 689.046 102.563C689.046 101.823 688.901 101.09 688.619 100.407C688.337 99.7233 687.924 99.1023 687.402 98.5793C686.881 98.0563 686.263 97.6414 685.582 97.3585C684.901 97.0755 684.172 96.93 683.435 96.9302H677.826C676.338 96.9302 674.911 96.3369 673.859 95.2807C672.807 94.2244 672.215 92.7918 672.215 91.2979C672.215 89.8036 672.806 88.3706 673.858 87.314C674.911 86.2574 676.338 85.6638 677.826 85.6638H694.655C695.393 85.6638 696.123 85.5178 696.804 85.234C697.486 84.9502 698.105 84.5342 698.626 84.01C699.147 83.4857 699.56 82.8634 699.841 82.1787C700.122 81.494 700.266 80.7603 700.264 80.0196C700.264 78.5258 699.673 77.0932 698.621 76.037C697.57 74.9807 696.143 74.3873 694.655 74.3873H666.609C665.138 74.3616 663.736 73.7569 662.705 72.7032C661.674 71.6496 661.096 70.2314 661.096 68.7541C661.096 67.2768 661.674 65.8586 662.705 64.8049C663.736 63.7513 665.138 63.1465 666.609 63.1209H683.44C684.928 63.1209 686.355 62.5273 687.408 61.4707C688.46 60.4141 689.051 58.9811 689.051 57.4868C689.051 55.9926 688.46 54.5596 687.408 53.503C686.355 52.4464 684.928 51.8528 683.44 51.8528H677.831C677.094 51.853 676.365 51.7075 675.684 51.4246C675.003 51.1416 674.385 50.7268 673.864 50.2037C673.343 49.6807 672.929 49.0597 672.647 48.3763C672.365 47.6928 672.22 46.9603 672.22 46.2205C672.221 44.7265 672.812 43.2939 673.864 42.2377C674.916 41.1815 676.343 40.5881 677.831 40.5881H705.877C707.365 40.5881 708.792 39.9948 709.844 38.9386C710.896 37.8823 711.487 36.4497 711.488 34.9558C711.488 34.216 711.343 33.4834 711.061 32.8C710.779 32.1165 710.365 31.4955 709.844 30.9725C709.323 30.4495 708.705 30.0346 708.024 29.7517C707.343 29.4687 706.614 29.3232 705.877 29.3234H666.609C665.122 29.3234 663.696 28.7305 662.644 27.675C661.592 26.6194 661.001 25.1877 661 23.6945C661 22.9547 661.145 22.2221 661.426 21.5386C661.708 20.855 662.121 20.2339 662.642 19.7107C663.163 19.1875 663.782 18.7725 664.462 18.4893C665.143 18.2062 665.872 18.0604 666.609 18.0604H683.435C684.923 18.0604 686.35 17.4671 687.402 16.4109C688.454 15.3547 689.046 13.9221 689.046 12.4281C689.046 11.6883 688.901 10.9558 688.619 10.2723C688.337 9.58885 687.924 8.96787 687.402 8.44484C686.881 7.9218 686.263 7.50697 685.582 7.22401C684.901 6.94106 684.172 6.79554 683.435 6.79576H677.826C677.089 6.79576 676.359 6.65003 675.679 6.36689C674.998 6.08376 674.379 5.66876 673.858 5.14559C672.806 4.089 672.215 2.65596 672.215 1.16172C672.215 -0.332226 672.807 -1.76483 673.859 -2.82105C674.911 -3.87727 676.338 -4.47062 677.826 -4.47062H717.092C717.829 -4.47062 718.558 -4.61636 719.239 -4.89952C719.92 -5.18268 720.538 -5.59771 721.059 -6.1209C721.58 -6.64409 721.993 -7.26519 722.275 -7.94874C722.556 -8.63228 722.701 -9.36487 722.701 -10.1047C722.701 -11.5982 722.11 -13.0303 721.058 -14.0862C720.006 -15.1421 718.579 -15.7353 717.092 -15.7353H689.046C688.309 -15.7351 687.58 -15.8806 686.899 -16.1636C686.218 -16.4465 685.6 -16.8614 685.079 -17.3844C684.558 -17.9074 684.144 -18.5284 683.862 -19.2119C683.58 -19.8953 683.435 -20.6279 683.435 -21.3677C683.435 -22.1074 683.58 -22.84 683.862 -23.5235C684.144 -24.2069 684.558 -24.8279 685.079 -25.3509C685.6 -25.874 686.218 -26.2888 686.899 -26.5717C687.58 -26.8547 688.309 -27.0002 689.046 -27Z" fill="#FA8B41" fill-opacity="0.21"/>
</g>
<defs>
<linearGradient id="paint0_linear" x1="187.169" y1="29" x2="187.169" y2="63.0402" gradientUnits="userSpaceOnUse">
<stop stop-color="#FB8E3F"/>
<stop offset="1" stop-color="#F75D5D"/>
</linearGradient>
<clipPath id="clip0">
<rect width="728" height="115" fill="white"/>
</clipPath>
</defs>
</svg>
