<svg id="Layer_1" data-name="Layer 1" xmlns="http://www.w3.org/2000/svg" xmlns:xlink="http://www.w3.org/1999/xlink" viewBox="0 0 512 512"><defs><style>.cls-1{fill:url(#linear-gradient);}</style><linearGradient id="linear-gradient" x1="22.24" y1="256.96" x2="488.83" y2="256.96" gradientUnits="userSpaceOnUse"><stop offset="0.02" stop-color="#ef8622"/><stop offset="0.43" stop-color="#ef7424"/><stop offset="0.91" stop-color="#f05a28"/></linearGradient></defs><title>logo</title><path class="cls-1" d="M252.5,9.56,22.24,91.67,57.58,396.19,252.5,504.36l198.13-109.6,38.2-304.52ZM406.79,321C405,369.78,365,417.49,319.63,424.78c1.52-7.88,3.79-15.71,4.32-23.62.51-7.61-.8-15.29-1.46-25.16-9.46,11.65-16,21.68-24.88,30.12-9.27,8.84-23.08,11-38,12.63,1.91-6.31,3.7-11.33,4.93-16.44,2.52-10.5,0-20.16-9-28.18-8.76-7.88-17.48-15.9-27.18-23-21-15.31-27.76-34.73-26.91-56.71a15.47,15.47,0,0,0-1.29-7.65c-17.63,20-29.26,42-32.93,66.69-3.84,25.85,7.58,47.69,29.74,69.16-5.39-1.35-7.81-1.71-10-2.53C121.68,395.3,95,338.54,125,283c12.08-22.4,28.41-43.48,44.82-64.1,29.58-37.17,44.78-77.79,48.84-121.56a46.26,46.26,0,0,1,.89-5.83A9.07,9.07,0,0,1,221,89.14c1,.25,2.3.23,2.86.73,44.16,39.59,80.83,82.91,99.93,134.73,14.28,38.76,14,76.74-11.17,113-1.07,1.55-1.41,3.44-2.2,5.46,23.36-2.87,49.8-25.58,55-45.82s2.81-40.06-5.44-59.51c-1.33-3.14-2.55-6.3-3.9-9.64C379.8,233.18,408.07,285.35,406.79,321Z"/></svg>